<svg xmlns="http://www.w3.org/2000/svg" viewBox="0 0 14.58 14.58"><defs><style>.cls-1{fill:#fff;}</style></defs><g id="Layer_2" data-name="Layer 2"><g id="Layer_1-2" data-name="Layer 1"><path class="cls-1" d="M10,0H4.56A4.56,4.56,0,0,0,0,4.56V10a4.56,4.56,0,0,0,4.56,4.55H10A4.55,4.55,0,0,0,14.58,10V4.56A4.56,4.56,0,0,0,10,0Zm3.19,10A3.21,3.21,0,0,1,10,13.22H4.56A3.2,3.2,0,0,1,1.37,10V4.56A3.19,3.19,0,0,1,4.56,1.37H10a3.2,3.2,0,0,1,3.19,3.19Z"/><path class="cls-1" d="M7.29,3.65a3.65,3.65,0,1,0,3.65,3.64A3.64,3.64,0,0,0,7.29,3.65Zm0,5.92A2.28,2.28,0,1,1,9.57,7.29,2.29,2.29,0,0,1,7.29,9.57Z"/><circle class="cls-1" cx="11.21" cy="3.37" r="0.49"/></g></g></svg>