<svg xmlns="http://www.w3.org/2000/svg" viewBox="0 0 14.58 11.85"><defs><style>.cls-1{fill:#fff;}</style></defs><g id="Layer_2" data-name="Layer 2"><g id="Layer_1-2" data-name="Layer 1"><path class="cls-1" d="M14.58,1.4a5.93,5.93,0,0,1-1.72.47A3,3,0,0,0,14.18.22a6,6,0,0,1-1.9.73A3,3,0,0,0,7.11,3a3,3,0,0,0,.07.68A8.44,8.44,0,0,1,1,.55,2.94,2.94,0,0,0,.61,2.06,3,3,0,0,0,1.93,4.54,3,3,0,0,1,.58,4.17v0A3,3,0,0,0,3,7.14a2.85,2.85,0,0,1-.79.1,2.59,2.59,0,0,1-.56,0A3,3,0,0,0,4.42,9.27a6,6,0,0,1-3.7,1.28,5.69,5.69,0,0,1-.72,0,8.43,8.43,0,0,0,4.59,1.34A8.45,8.45,0,0,0,13.1,3.34c0-.13,0-.26,0-.39A5.67,5.67,0,0,0,14.58,1.4Z"/></g></g></svg>