<svg xmlns="http://www.w3.org/2000/svg" viewBox="0 0 641.47 641.47"><defs><style>.cls-1{fill:#fff;}</style></defs><g id="Layer_2" data-name="Layer 2"><g id="Layer_1-2" data-name="Layer 1"><path class="cls-1" d="M320.74,641.47A320.74,320.74,0,0,1,93.94,93.94,320.74,320.74,0,0,1,547.53,547.53,318.62,318.62,0,0,1,320.74,641.47Zm0-627.71a307,307,0,0,0-217.07,524A307,307,0,0,0,537.8,103.67,305,305,0,0,0,320.74,13.76Z"/><path class="cls-1" d="M320.74,153.94a167.64,167.64,0,0,0-47.42,6.84,165.65,165.65,0,0,0-40.86,18.4A167.48,167.48,0,0,0,173,243.25a165.7,165.7,0,0,0-15.69,44A166.91,166.91,0,0,0,220.45,454a166.15,166.15,0,0,0,84.44,32.75c5.27.5,10.57.75,15.86.75a167.69,167.69,0,0,0,31.69-3,165.62,165.62,0,0,0,44-15.1A166.89,166.89,0,0,0,409.2,179.3a165.6,165.6,0,0,0-40.83-18.45,167.68,167.68,0,0,0-47.63-6.91m-.27,81.42a270.72,270.72,0,0,1-41.61-3.18c-3.8-.59-7.58-1.26-11.34-2,.17-.41.35-.81.52-1.22,5.61-13,12.95-25.71,23-35.63,5.4-5.31,11.76-9.89,19-12.29a33.77,33.77,0,0,1,10.62-1.72,34.25,34.25,0,0,1,12.06,2.21c7.27,2.71,13.59,7.57,18.94,13.12a95.19,95.19,0,0,1,12.38,16.15A142.37,142.37,0,0,1,374,230.14a262.77,262.77,0,0,1-47.21,5.15c-2.09,0-4.18.07-6.27.07m75.31-10.85c-.09,0-.13-.07-.22-.29-.31-.76-.62-1.52-.94-2.28-.76-1.79-1.54-3.6-2.35-5.38-1.59-3.46-3.26-6.86-5.07-10.2a132.13,132.13,0,0,0-13.22-20A144,144,0,0,1,411.24,208q2.94,2.37,5.76,4.89c.86.77,1.7,1.55,2.55,2.35A176.05,176.05,0,0,1,397.5,224c-.45.14-.9.29-1.35.42a2,2,0,0,1-.37.11m-150.09,0a1.72,1.72,0,0,1-.37-.1l-1.58-.5c-1.07-.34-2.14-.71-3.19-1.06-2.14-.74-4.25-1.51-6.36-2.33q-6.25-2.41-12.26-5.31c.41-.4.83-.79,1.25-1.18a143.17,143.17,0,0,1,35.7-24c2.84-1.33,5.7-2.57,8.61-3.72-9.15,11.36-16.06,24.34-21.55,37.81-.1.26-.13.36-.25.36m167.09,85.12c-.24,0-.13-.53-.14-.72l-.12-3q-.3-5.94-.83-11.86-1.05-11.79-3.09-23.44-2-11.28-5-22.33l-.75-2.66,2.82-.9c1.86-.62,3.7-1.27,5.54-1.93,3.74-1.35,7.46-2.82,11.11-4.4,2.09-.92,4.17-1.86,6.24-2.85q2.73-1.31,5.43-2.72c.21-.12.43-.23.65-.34s.26-.2.36-.2.13,0,.21.14c.27.35.54.71.82,1.06l1.72,2.34q3.28,4.53,6.19,9.29a145.06,145.06,0,0,1,20.95,64.52H412.78m-236.22,0,0-.52A145.28,145.28,0,0,1,198.22,244q3-4.74,6.29-9.24c.53-.72,1.07-1.43,1.61-2.13.13-.18.16-.31.28-.31a.5.5,0,0,1,.21.07l.65.35,1.51.78c1.8.93,3.63,1.82,5.47,2.68a192.38,192.38,0,0,0,22,8.68l1.31.42.64.21c.29.09.46,0,.36.36-.27,1-.54,1.92-.79,2.89-.51,1.83-1,3.67-1.44,5.52-.9,3.69-1.73,7.4-2.46,11.13-1.52,7.68-2.68,15.41-3.53,23.19q-.65,6-1,12c-.13,1.93-.24,3.88-.33,5.82-.05.93-.09,1.85-.12,2.78,0,.28.1.48-.2.48H176.56m144.17-52c7.26,0,14.53-.27,21.77-.79,7.87-.56,15.74-1.44,23.54-2.66q5.73-.89,11.41-2l2.71-.56c.4-.09.8-.16,1.21-.26.15.52.3,1,.44,1.58q.81,2.88,1.55,5.79a248.86,248.86,0,0,1,6.85,46.41c.09,1.51.15,3,.21,4.54H251a252.46,252.46,0,0,1,6.08-46.79q1.31-5.68,2.91-11.31c.05-.17.08-.21.14-.21a1.6,1.6,0,0,1,.24.06l.68.15,1.36.27c1,.21,1.95.4,2.94.6,1.88.36,3.78.72,5.68,1,7.74,1.34,15.55,2.34,23.38,3,8.73.76,17.51,1.15,26.28,1.15M435.09,409.13c-.08,0-.16-.09-.32-.17l-.56-.3-1.45-.76c-1.81-.92-3.64-1.81-5.47-2.66a193.1,193.1,0,0,0-21.82-8.61l-2.59-.83c.27-1,.54-1.92.8-2.88.51-1.83,1-3.68,1.44-5.52q1.35-5.53,2.46-11.12c1.53-7.66,2.7-15.39,3.54-23.14q.66-6,1.06-12c.14-1.94.25-3.89.34-5.82.05-.93.08-1.86.12-2.78,0-.19-.1-.71.14-.71H464.9l0,.51A145.58,145.58,0,0,1,443.2,397.6c-2,3.16-4.08,6.24-6.3,9.24-.53.71-1.07,1.43-1.62,2.14-.08.11-.14.15-.19.15m-175-18.91c-.16-.52-.31-1.06-.45-1.58-.53-1.91-1.05-3.85-1.53-5.78a247.85,247.85,0,0,1-6.87-46.22c-.08-1.59-.16-3.19-.23-4.78H390.42a254.58,254.58,0,0,1-6.06,46.73c-.87,3.79-1.84,7.57-2.92,11.31-.05.17-.07.22-.13.22a1.6,1.6,0,0,1-.24-.06c-.23-.05-.45-.09-.67-.15l-1.36-.28c-1-.2-2-.4-3-.58-1.89-.38-3.78-.72-5.68-1.05q-11.62-2-23.4-3-13-1.11-26-1.12-11,0-22.07.81-11.79.85-23.51,2.67c-3.82.61-7.62,1.27-11.4,2-.91.17-1.81.36-2.71.56l-1.2.26m-53.61,19.06c-.06,0-.12,0-.2-.14l-.8-1.06c-.58-.77-1.17-1.54-1.73-2.33q-3.28-4.5-6.19-9.26a144.76,144.76,0,0,1-10.23-20,142.76,142.76,0,0,1-10.8-44.64H228.7c.23,0,.12.52.13.71,0,1,.08,2,.13,3q.28,5.94.82,11.87,1,11.79,3.1,23.47c1.33,7.51,3,15,5,22.35.24.89.49,1.78.75,2.66-.95.31-1.89.6-2.83.92-1.86.61-3.7,1.26-5.54,1.92q-5.61,2-11.08,4.41c-2.08.9-4.16,1.85-6.22,2.84-1.82.88-3.63,1.78-5.42,2.73l-.66.34c-.17.09-.26.2-.37.2m114.26,52.91a34.44,34.44,0,0,1-12.29-2.29c-7.26-2.76-13.55-7.66-18.88-13.22a96.15,96.15,0,0,1-12.18-15.94,140,140,0,0,1-9.88-19.37,261.38,261.38,0,0,1,47.17-5.19c2.14-.05,4.27-.07,6.41-.07a271.79,271.79,0,0,1,41.5,3.15q5.7.89,11.35,2c-.17.4-.34.81-.52,1.22-5.55,12.93-12.91,25.63-22.89,35.5-5.49,5.45-12,10.14-19.41,12.54a33.65,33.65,0,0,1-10.38,1.64M374,455.14c9.16-11.37,16.09-24.34,21.55-37.82l.19-.46,1.58.5,3.2,1.06c2.21.75,4.42,1.55,6.6,2.38,4.25,1.64,8.43,3.43,12.52,5.4-.41.4-.83.79-1.24,1.17a142.43,142.43,0,0,1-35.62,24c-2.88,1.36-5.81,2.64-8.78,3.81m-106.5,0a144.13,144.13,0,0,1-37.18-21.58q-2.94-2.35-5.75-4.87-1.29-1.15-2.55-2.34a171.89,171.89,0,0,1,22-8.8l1.35-.43a2,2,0,0,1,.37-.11c.09,0,.12.08.21.29.34.84.68,1.67,1,2.49.76,1.82,1.55,3.6,2.36,5.39,1.59,3.44,3.27,6.83,5.08,10.16a131.68,131.68,0,0,0,13.08,19.8"/></g></g></svg>