<svg xmlns="http://www.w3.org/2000/svg" viewBox="0 0 141.8 144.22"><defs><style>.cls-1{fill:#fff;}</style></defs><g id="Layer_2" data-name="Layer 2"><g id="Layer_1-2" data-name="Layer 1"><path class="cls-1" d="M73.41,122.67l24.78,21.55s33.89-46.91,43.61-95.09c0,.32-39.21,52.3-68.39,73.54"/><path class="cls-1" d="M.94,98.58s40.16,32,94.43,45.64c0-.32-46.43-35.82-73.1-71C22.27,73.54.94,98.58.94,98.58"/><path class="cls-1" d="M45.8,1.27S10.67,50.08,0,96.36C0,97,18.82,68.15,70.59,23.78c.31,0-9.73-10.15-24.79-22.51"/><path class="cls-1" d="M119.52,72.9C94.11,38.67,47.69,0,47.69,0c61.17,16.8,93.17,47.23,93.17,47.23-7.84,9.82-21,26-21.34,25.67"/></g></g></svg>