<svg xmlns="http://www.w3.org/2000/svg" viewBox="0 0 444.65 80"><defs><style>.cls-1{fill:#fff;}</style></defs><g id="Layer_2" data-name="Layer 2"><g id="Layer_1-2" data-name="Layer 1"><path class="cls-1" d="M67,40.44C52.75,21.45,26.73,0,26.73,0,61,9.32,79,26.2,79,26.2,74.55,31.65,67.17,40.62,67,40.44ZM25.67.7S6,27.78,0,53.45C0,53.8,10.55,37.8,39.56,13.19,39.74,13.19,34.11,7.56,25.67.7ZM.53,54.68S23,72.44,53.45,80c0-.17-26-19.87-41-39.38C12.48,40.79.53,54.68.53,54.68ZM41.14,68.05,55,80S74,54,79.48,27.25C79.48,27.43,57.5,56.27,41.14,68.05ZM96.25,5.47h27.3c22,0,37.21,15.1,37.21,34.81v.19c0,19.71-15.21,35-37.21,35H96.25Zm15.4,13.9V61.58h11.9c12.6,0,21.11-8.5,21.11-20.91v-.2c0-12.4-8.51-21.1-21.11-21.1Zm62.8-13.9h52.8v13.7h-37.5v14.2h33v13.7h-33V61.78h38v13.7h-53.3Zm63.9,35.2v-.2c0-19.9,15-36.2,36.5-36.2,13.2,0,21.11,4.4,27.61,10.8l-9.8,11.3c-5.41-4.9-10.91-7.9-17.91-7.9-11.8,0-20.3,9.8-20.3,21.81v.19c0,12,8.3,22,20.3,22,8,0,12.91-3.2,18.41-8.2l9.8,9.9c-7.21,7.7-15.21,12.5-28.71,12.5C253.65,76.68,238.35,60.78,238.35,40.67ZM339.25,5h14.2l30,70.51h-16.1L361,59.78h-29.6L325,75.48h-15.7Zm16.2,41.21-9.3-22.71-9.3,22.71Z"/><rect class="cls-1" x="394.25" y="35.94" width="50.4" height="8.13"/><rect class="cls-1" x="394.25" y="35.94" width="50.4" height="8.13" transform="translate(459.45 -379.45) rotate(90)"/></g></g></svg>