<svg xmlns="http://www.w3.org/2000/svg" viewBox="0 0 348.4 72.4"><defs><style>.cls-1{fill:#fff;}</style></defs><g id="Layer_2" data-name="Layer 2"><g id="Layer_1-2" data-name="Layer 1"><g id="Layer_2-2" data-name="Layer 2"><g id="Layer_1-2-2" data-name="Layer 1-2"><path class="cls-1" d="M0,1.2H27.3c22,0,37.21,15.1,37.21,34.81v.19c0,19.71-15.21,35-37.21,35H0ZM15.4,15.1V57.31H27.3c12.6,0,21.11-8.5,21.11-20.91v-.2c0-12.4-8.51-21.1-21.11-21.1ZM78.2,1.2H131V14.9H93.5V29.1h33V42.8h-33V57.51h38v13.7H78.2Zm63.9,35.2v-.2c0-19.9,15-36.2,36.5-36.2,13.2,0,21.11,4.4,27.61,10.8l-9.8,11.3c-5.41-4.9-10.91-7.9-17.91-7.9-11.8,0-20.3,9.8-20.3,21.81v.19c0,12,8.3,22,20.3,22,8,0,12.91-3.2,18.41-8.2l9.8,9.9C199.5,67.6,191.5,72.4,178,72.4,157.4,72.41,142.1,56.51,142.1,36.4ZM243,.73h14.2l30,70.51H271.1l-6.35-15.73h-29.6l-6.4,15.7h-15.7Zm16.2,41.21-9.3-22.71-9.3,22.71Z"/><rect class="cls-1" x="298" y="31.67" width="50.4" height="8.13"/><rect class="cls-1" x="319.13" y="10.53" width="8.13" height="50.4"/></g></g></g></g></svg>